# xmcd
#
# Track frame offsets:
#        150
#        2630
#        11045
#        18602
#        26072
#        33096
#        39272
#        42853
#        50223
#        55286
#        60844
#        67994
#        79578
#        88046
#        99300
#        110480
#        118753
#
# Disc length: 1693 seconds
#
# Revision: 0
# Processed by: cddbd v1.5.1PL2 Copyright (c) Steve Scherf et al.
# Submitted via: ExactAudioCopy v0.95b2
#
DISCID=cf069b11
DTITLE=Inferia - Release For Burial Orgies
DYEAR=1900
DGENRE=Death Metal
TTITLE0=Intro
TTITLE1=Fucked From Behind
TTITLE2=Red Raw Sore
TTITLE3=Born In Penis Erection
TTITLE4=Cunt
TTITLE5=The Smell Of Anal Intercourse
TTITLE6=Hot Golden Mouthwash
TTITLE7=Cum Eye
TTITLE8=Sadomise
TTITLE9=Cock And Roll Show
TTITLE10=Anusferatu
TTITLE11=Extreme Oral Hacking
TTITLE12=From Perversion To Sperm Overdose
TTITLE13=Goldenshowers By Blood
TTITLE14=Pussy Farts
TTITLE15=Preferred Vaginal Looks
TTITLE16=Cum Shot Victim
EXTD=
EXTT0=
EXTT1=
EXTT2=
EXTT3=
EXTT4=
EXTT5=
EXTT6=
EXTT7=
EXTT8=
EXTT9=
EXTT10=
EXTT11=
EXTT12=
EXTT13=
EXTT14=
EXTT15=
EXTT16=
PLAYORDER=
